<svg width="16" height="4" viewBox="0 0 16 4" fill="none" xmlns="http://www.w3.org/2000/svg">
<path fill-rule="evenodd" clip-rule="evenodd" d="M5.03518 1.84631C5.03965 1.85635 5.04407 1.86647 5.04848 1.87657C5.05701 1.89614 5.10281 1.89575 5.1092 1.86614C5.13124 1.7641 5.18698 1.6268 5.26206 1.55155C5.72673 1.08584 5.19618 1.61743 5.66086 1.15171C5.72924 1.08318 5.78744 0.967337 5.79455 0.862661C5.79706 0.825727 5.77999 0.803472 5.74221 0.806039C5.63753 0.813152 5.52169 0.871348 5.45315 0.939733C4.98744 1.4044 5.51903 0.873855 5.05331 1.33853C4.97807 1.41361 4.84077 1.46935 4.73873 1.49139C4.70912 1.49778 4.70873 1.54358 4.7283 1.55211C4.73557 1.55528 4.74297 1.55855 4.75028 1.56185C4.86638 1.60995 4.84315 1.6847 4.7118 1.74237C4.62169 1.78193 4.42691 1.86365 4.19729 1.83627C3.94694 1.80641 3.82604 1.67021 3.81995 1.40909C3.82377 0.630414 4.45618 0 5.23575 0C6.01769 0 6.65158 0.633885 6.65158 1.41582C6.65158 2.18406 6.03956 2.80939 5.27657 2.83107C5.01334 2.83613 4.82218 2.76858 4.77806 2.40647C4.75115 2.18557 4.8297 2.00065 4.86709 1.90962C4.92604 1.7661 4.98327 1.73169 5.03518 1.84631Z" fill="#464CE0"/>
<path d="M2.07499 2.26011C1.62266 2.26011 1.25612 1.88979 1.25612 1.4328C1.25612 0.975814 1.62266 0.605494 2.07499 0.605494H3.43977V0.0539551H2.07499C1.32241 0.0539551 0.710205 0.672466 0.710205 1.4328C0.710205 2.19314 1.32241 2.81165 2.07499 2.81165H3.43977V2.26011H2.07499ZM14.0266 2.81165H14.5725V0.0539551H14.0266V2.81165ZM11.4432 0.0539551C10.9909 0.0539551 10.6244 0.424274 10.6244 0.881264V1.98434C10.6244 2.44133 10.9909 2.81165 11.4432 2.81165H13.3539V2.26011H11.4432C11.2912 2.26011 11.1703 2.13799 11.1703 1.98434V1.70857H13.159V1.15703H11.1703V0.881264C11.1703 0.727621 11.2912 0.605494 11.4432 0.605494H13.3539V0.0539551H11.4432ZM7.24166 0.0539551V2.81165H8.60644C9.35902 2.81165 9.97123 2.19314 9.97123 1.4328C9.97123 0.672466 9.35902 0.0539551 8.60644 0.0539551H7.24166ZM8.60644 0.605494C9.05877 0.605494 9.42531 0.975814 9.42531 1.4328C9.42531 1.88979 9.05877 2.26011 8.60644 2.26011H7.78757V0.605494H8.60644Z" fill="#FEFEFE"/>
<path fill-rule="evenodd" clip-rule="evenodd" d="M0.580033 3.98896L0.357249 3.45587H0.222784L0 3.98896H0.140832L0.178227 3.89189H0.402602L0.439997 3.98896H0.580033ZM0.35884 3.7789H0.222784L0.290414 3.60386L0.35884 3.7789ZM0.955265 3.67467V3.78607H1.11837C1.09848 3.84494 1.04756 3.88154 0.977542 3.88154C0.88843 3.88154 0.820798 3.81312 0.820798 3.72241C0.820798 3.6325 0.886839 3.56408 0.973565 3.56408C1.02528 3.56408 1.0762 3.57999 1.10723 3.64046L1.23374 3.60386C1.19635 3.49963 1.09212 3.44393 0.973565 3.44393C0.813637 3.44393 0.68872 3.56646 0.68872 3.72241C0.68872 3.87916 0.814434 4.00089 0.975952 4.00089C1.13667 4.00089 1.25204 3.88473 1.25204 3.72321C1.25204 3.70968 1.25125 3.69377 1.24886 3.67467H0.955265ZM1.8429 3.87597H1.55885V3.77572H1.81744V3.6691H1.55885V3.56885H1.84051V3.45587H1.42757V3.98896H1.8429V3.87597ZM2.5356 3.45587H2.40511V3.77413L2.13538 3.45587H2.02638V3.98896H2.15766V3.68024L2.42739 3.98896H2.5356V3.45587ZM3.1352 3.76379C3.1169 3.84335 3.0628 3.88154 2.99517 3.88154C2.91083 3.88154 2.8432 3.81312 2.8432 3.72241C2.8432 3.63171 2.91083 3.56408 2.99517 3.56408C3.06359 3.56408 3.1177 3.60147 3.13441 3.67865L3.2633 3.64842C3.23784 3.52191 3.12645 3.44393 2.99517 3.44393C2.83683 3.44393 2.71191 3.56646 2.71191 3.72241C2.71191 3.87916 2.83683 4.00089 2.99517 4.00089C3.13202 4.00089 3.23943 3.92292 3.2641 3.78925L3.1352 3.76379ZM3.5709 3.98896V3.45587H3.43962V3.98896H3.5709ZM4.29861 3.98896L4.07583 3.45587H3.94136L3.71858 3.98896H3.85941L3.8968 3.89189H4.12118L4.15857 3.98896H4.29861ZM4.07742 3.7789H3.94136L4.00899 3.60386L4.07742 3.7789ZM4.7324 3.45587V3.98896H4.94325C5.11909 3.98896 5.23526 3.88075 5.23526 3.72241C5.23526 3.56408 5.11909 3.45587 4.94325 3.45587H4.7324ZM4.86369 3.87518V3.56965H4.93848C5.03793 3.56965 5.10318 3.63012 5.10318 3.72241C5.10318 3.81471 5.03793 3.87518 4.93848 3.87518H4.86369ZM5.82611 3.87597H5.54206V3.77572H5.80065V3.6691H5.54206V3.56885H5.82372V3.45587H5.41078V3.98896H5.82611V3.87597ZM6.91075 3.45587H6.78265L6.60362 3.78607L6.4246 3.45587H6.29571V3.98896H6.42301V3.72162L6.56305 3.98896H6.6442L6.78344 3.72321V3.98896H6.91075V3.45587ZM7.63845 3.98896L7.41567 3.45587H7.2812L7.05842 3.98896H7.19925L7.23665 3.89189H7.46102L7.49842 3.98896H7.63845ZM7.41726 3.7789H7.2812L7.34883 3.60386L7.41726 3.7789ZM8.27466 3.98896L8.10757 3.79959C8.1935 3.7805 8.24761 3.71764 8.24761 3.63012C8.24761 3.52589 8.17122 3.45587 8.05585 3.45587H7.78613V3.98896H7.91741V3.80596H7.9556L8.11632 3.98896H8.27466ZM7.91741 3.69616V3.56806H8.04153C8.08848 3.56806 8.11871 3.59352 8.11871 3.63171C8.11871 3.67069 8.08848 3.69616 8.04153 3.69616H7.91741ZM8.93314 3.98896L8.69047 3.72321L8.91723 3.45587H8.75969L8.57828 3.66751H8.55919V3.45587H8.4279V3.98896H8.55919V3.78845H8.58703L8.76128 3.98896H8.93314ZM9.49376 3.87597H9.20971V3.77572H9.4683V3.6691H9.20971V3.56885H9.49138V3.45587H9.07843V3.98896H9.49376V3.87597ZM10.1228 3.57044V3.45587H9.64701V3.57044H9.81966V3.98896H9.95015V3.57044H10.1228ZM10.4177 3.98896V3.45587H10.2864V3.98896H10.4177ZM11.1207 3.45587H10.9902V3.77413L10.7205 3.45587H10.6115V3.98896H10.7428V3.68024L11.0125 3.98896H11.1207V3.45587ZM11.5636 3.67467V3.78607H11.7267C11.7068 3.84494 11.6559 3.88154 11.5859 3.88154C11.4967 3.88154 11.4291 3.81312 11.4291 3.72241C11.4291 3.6325 11.4952 3.56408 11.5819 3.56408C11.6336 3.56408 11.6845 3.57999 11.7156 3.64046L11.8421 3.60386C11.8047 3.49963 11.7004 3.44393 11.5819 3.44393C11.422 3.44393 11.297 3.56646 11.297 3.72241C11.297 3.87916 11.4228 4.00089 11.5843 4.00089C11.745 4.00089 11.8604 3.88473 11.8604 3.72321C11.8604 3.70968 11.8596 3.69377 11.8572 3.67467H11.5636ZM12.322 3.45587V3.98896H12.5329C12.7087 3.98896 12.8249 3.88075 12.8249 3.72241C12.8249 3.56408 12.7087 3.45587 12.5329 3.45587H12.322ZM12.4533 3.87518V3.56965H12.5281C12.6275 3.56965 12.6928 3.63012 12.6928 3.72241C12.6928 3.81471 12.6275 3.87518 12.5281 3.87518H12.4533ZM13.1317 3.98896V3.45587H13.0004V3.98896H13.1317ZM13.5737 3.67467V3.78607H13.7368C13.7169 3.84494 13.666 3.88154 13.596 3.88154C13.5069 3.88154 13.4393 3.81312 13.4393 3.72241C13.4393 3.6325 13.5053 3.56408 13.592 3.56408C13.6437 3.56408 13.6947 3.57999 13.7257 3.64046L13.8522 3.60386C13.8148 3.49963 13.7106 3.44393 13.592 3.44393C13.4321 3.44393 13.3072 3.56646 13.3072 3.72241C13.3072 3.87916 13.4329 4.00089 13.5944 4.00089C13.7551 4.00089 13.8705 3.88473 13.8705 3.72321C13.8705 3.70968 13.8697 3.69377 13.8673 3.67467H13.5737ZM14.1773 3.98896V3.45587H14.046V3.98896H14.1773ZM14.8167 3.57044V3.45587H14.3409V3.57044H14.5136V3.98896H14.644V3.57044H14.8167ZM15.4585 3.98896L15.2357 3.45587H15.1012L14.8784 3.98896H15.0193L15.0567 3.89189H15.281L15.3184 3.98896H15.4585ZM15.2373 3.7789H15.1012L15.1689 3.60386L15.2373 3.7789ZM16 3.87438H15.7374V3.45587H15.6062V3.98896H16V3.87438ZM1.65885 3.43108H1.78342L1.67924 3.3269H1.58829L1.48411 3.43108L1.60867 3.43099L1.63372 3.40595L1.65885 3.43108Z" fill="#FEFEFE"/>
</svg>
