<svg width="62" height="46" viewBox="0 0 62 46" fill="none" xmlns="http://www.w3.org/2000/svg">
<path d="M4.50489 45.8598H14.3327V22.0961L0.292969 11.5344V41.6517C0.292969 43.962 2.19246 45.8598 4.50489 45.8598Z" fill="white"/>
<path d="M47.9453 45.8598H57.7731C60.0855 45.8598 61.985 43.962 61.985 41.6517V11.5344L47.9453 22.0136" fill="white"/>
<path d="M47.9453 3.86077V22.0961L61.985 11.617V5.9236C61.985 0.725281 56.0388 -2.24518 51.9095 0.890307" fill="white"/>
<path d="M14.334 22.0964V3.86108L31.1817 16.4856L47.9467 3.86108V22.0964L31.0991 34.6384" fill="white"/>
<path d="M0.292969 5.92396V11.5348L14.3327 22.014V3.86114L10.3685 0.890674C6.2392 -2.1623 0.292969 0.808161 0.292969 5.92396Z" fill="white"/>
</svg>
