<svg width="27" height="27" viewBox="0 0 27 27" fill="none" xmlns="http://www.w3.org/2000/svg">
<path d="M7.90894 0.0944168C6.47253 0.162188 5.49161 0.39142 4.63408 0.728384C3.74658 1.07426 2.99435 1.53839 2.2459 2.28954C1.49746 3.04069 1.03656 3.79346 0.693119 4.68231C0.360746 5.54173 0.135563 6.52346 0.0721126 7.96068C0.00866199 9.39791 -0.00537817 9.85988 0.00164191 13.526C0.00866198 17.1921 0.0248622 17.6516 0.0945229 19.0918C0.163104 20.528 0.391526 21.5086 0.728489 22.3664C1.0749 23.2539 1.5385 24.0059 2.28992 24.7546C3.04133 25.5033 3.79356 25.9631 4.68457 26.3071C5.54318 26.6389 6.52518 26.8652 7.96213 26.9281C9.39909 26.991 9.8616 27.0056 13.5266 26.9986C17.1916 26.9916 17.6531 26.9754 19.093 26.9071C20.5329 26.8387 21.5084 26.6087 22.3665 26.2734C23.254 25.9261 24.0065 25.4634 24.7547 24.7117C25.5029 23.96 25.9635 23.2067 26.3067 22.3173C26.6393 21.4587 26.8653 20.4767 26.9277 19.0408C26.9906 17.5998 27.0054 17.1397 26.9984 13.4741C26.9914 9.80858 26.9749 9.34904 26.9066 7.90938C26.8383 6.46973 26.6096 5.49204 26.2729 4.63371C25.926 3.74621 25.4629 2.99479 24.7118 2.24553C23.9606 1.49627 23.2068 1.03592 22.3176 0.693553C21.4585 0.36118 20.477 0.134647 19.0401 0.0725466C17.6031 0.0104459 17.1406 -0.00548428 13.4742 0.00153579C9.80787 0.00855587 9.34887 0.024216 7.90894 0.0944168ZM8.06663 24.4994C6.75036 24.4422 6.03566 24.2235 5.55938 24.0404C4.92865 23.7974 4.47937 23.5037 4.0047 23.0336C3.53004 22.5635 3.23844 22.1126 2.99219 21.4832C2.80724 21.007 2.58449 20.2931 2.52293 18.9768C2.45597 17.5542 2.44193 17.127 2.4341 13.5227C2.42627 9.91847 2.44004 9.49187 2.50241 8.06868C2.55857 6.7535 2.77862 6.03799 2.96141 5.56198C3.20441 4.93044 3.4971 4.48196 3.96825 4.00757C4.43941 3.53317 4.88896 3.24103 5.51888 2.99479C5.99462 2.80903 6.70851 2.58816 8.02423 2.52552C9.44796 2.45802 9.87456 2.44452 13.4783 2.43669C17.082 2.42886 17.5097 2.44236 18.934 2.505C20.2491 2.56224 20.9649 2.78014 21.4404 2.96401C22.0714 3.20701 22.5204 3.49888 22.9948 3.97085C23.4692 4.44281 23.7616 4.89075 24.0079 5.52202C24.1939 5.99641 24.4148 6.71003 24.4769 8.02656C24.5446 9.45029 24.56 9.87716 24.5665 13.4806C24.573 17.0841 24.5603 17.512 24.4979 18.9347C24.4404 20.2509 24.2222 20.9659 24.0389 21.4427C23.7959 22.0732 23.503 22.5227 23.0315 22.9969C22.5601 23.471 22.1111 23.7631 21.4809 24.0094C21.0057 24.1949 20.291 24.4163 18.9764 24.4789C17.5526 24.5459 17.126 24.5599 13.521 24.5678C9.91587 24.5756 9.49062 24.561 8.0669 24.4994M19.0722 6.28477C19.0727 6.60521 19.1683 6.91828 19.3468 7.18441C19.5252 7.45053 19.7786 7.65775 20.0749 7.77985C20.3711 7.90196 20.697 7.93347 21.0111 7.87039C21.3253 7.80731 21.6137 7.65249 21.8398 7.42549C22.066 7.1985 22.2198 6.90953 22.2817 6.59514C22.3436 6.28075 22.3109 5.95506 22.1877 5.65925C22.0645 5.36345 21.8564 5.11082 21.5896 4.93332C21.3228 4.75582 21.0094 4.66142 20.689 4.66206C20.2594 4.66291 19.8478 4.83434 19.5446 5.13865C19.2414 5.44295 19.0715 5.85521 19.0722 6.28477ZM6.56838 13.5136C6.57594 17.3422 9.68529 20.4389 13.5131 20.4316C17.341 20.4243 20.4398 17.3152 20.4325 13.4866C20.4252 9.65792 17.315 6.56045 13.4867 6.56801C9.65829 6.57557 6.56109 9.68546 6.56838 13.5136ZM9.00002 13.5087C8.99826 12.6187 9.26047 11.7481 9.75349 11.0071C10.2465 10.266 10.9482 9.68786 11.7698 9.34563C12.5914 9.0034 13.4961 8.91249 14.3693 9.0844C15.2426 9.25631 16.0453 9.68332 16.6759 10.3114C17.3065 10.9395 17.7367 11.7405 17.9121 12.6131C18.0874 13.4857 18.0001 14.3907 17.6611 15.2137C17.3222 16.0367 16.7468 16.7406 16.0077 17.2366C15.2686 17.7325 14.3991 17.9982 13.5091 17.9999C12.9181 18.0012 12.3326 17.886 11.7862 17.6609C11.2397 17.4359 10.7429 17.1054 10.3242 16.6883C9.90551 16.2713 9.57305 15.7758 9.34584 15.2302C9.11863 14.6847 9.00112 14.0997 9.00002 13.5087Z" fill="white"/>
</svg>
