<svg width="387" height="97" viewBox="0 0 387 97" fill="none" xmlns="http://www.w3.org/2000/svg">
<path fill-rule="evenodd" clip-rule="evenodd" d="M121.724 44.5422C121.832 44.7845 121.938 45.0285 122.045 45.2722C122.25 45.7445 123.355 45.735 123.51 45.0206C124.041 42.5589 125.386 39.2466 127.197 37.4312C138.408 26.1958 125.608 39.0206 136.818 27.7851C138.468 26.1316 139.872 23.337 140.044 20.8117C140.104 19.9207 139.692 19.3838 138.781 19.4457C136.255 19.6173 133.461 21.0213 131.807 22.671C120.572 33.8813 133.397 21.0817 122.161 32.292C120.346 34.1032 117.034 35.4481 114.572 35.9798C113.858 36.134 113.848 37.2388 114.32 37.4447C114.496 37.5211 114.674 37.6001 114.851 37.6797C117.651 38.84 117.091 40.6434 113.922 42.0347C111.748 42.9891 107.049 44.9606 101.51 44.2999C95.4701 43.5796 92.5533 40.2937 92.4062 33.9942C92.4984 15.2087 107.755 0 126.563 0C145.427 0 160.719 15.2925 160.719 34.1567C160.719 52.6905 145.954 67.7766 127.547 68.2996C121.197 68.4217 116.585 66.7919 115.521 58.0561C114.871 52.7268 116.767 48.2657 117.669 46.0696C119.091 42.6072 120.471 41.7771 121.724 44.5422Z" fill="#464CE0"/>
<path d="M50.3082 54.5241C39.3958 54.5241 30.553 45.5901 30.553 34.5653C30.553 23.5404 39.3958 14.6064 50.3082 14.6064H83.2336V1.30054H50.3082C32.1522 1.30054 17.3828 16.2221 17.3828 34.5653C17.3828 52.9084 32.1522 67.83 50.3082 67.83H83.2336V54.5241H50.3082ZM338.64 67.83H351.81V1.30054H338.64V67.83ZM276.317 1.30054C265.405 1.30054 256.562 10.2345 256.562 21.2594V47.8711C256.562 58.896 265.405 67.83 276.317 67.83H322.413V54.5241H276.317C272.648 54.5241 269.732 51.5778 269.732 47.8711V41.2182H317.709V27.9123H269.732V21.2594C269.732 17.5527 272.648 14.6064 276.317 14.6064H322.413V1.30054H276.317ZM174.954 1.30054V67.83H207.88C226.036 67.83 240.805 52.9084 240.805 34.5653C240.805 16.2221 226.036 1.30054 207.88 1.30054H174.954ZM207.88 14.6064C218.792 14.6064 227.635 23.5404 227.635 34.5653C227.635 45.5901 218.792 54.5241 207.88 54.5241H188.124V14.6064H207.88Z" fill="#FEFEFE"/>
<path fill-rule="evenodd" clip-rule="evenodd" d="M14.2433 96.2325L8.86864 83.3717H5.62467L0.25 96.2325H3.64757L4.54974 93.8907H9.96277L10.8649 96.2325H14.2433ZM8.90702 91.165H5.62467L7.25624 86.9421L8.90702 91.165ZM23.2958 88.6504V91.3378H27.2308C26.7509 92.7582 25.5224 93.6412 23.8332 93.6412C21.6834 93.6412 20.0518 91.9904 20.0518 89.8021C20.0518 87.6331 21.645 85.9823 23.7372 85.9823C24.9849 85.9823 26.2134 86.3662 26.962 87.825L30.0141 86.9421C29.1119 84.4275 26.5973 83.0838 23.7372 83.0838C19.879 83.0838 16.8654 86.0399 16.8654 89.8021C16.8654 93.5836 19.8982 96.5205 23.7948 96.5205C27.6723 96.5205 30.4555 93.718 30.4555 89.8213C30.4555 89.495 30.4364 89.1111 30.3788 88.6504H23.2958ZM44.7099 93.5068H37.8572V91.0882H44.0957V88.5161H37.8572V86.0975H44.6523V83.3717H34.69V96.2325H44.7099V93.5068ZM61.4212 83.3717H58.2732V91.0498L51.7661 83.3717H49.1363V96.2325H52.3035V88.7848L58.8107 96.2325H61.4212V83.3717ZM75.8867 90.8003C75.4453 92.7198 74.14 93.6412 72.5084 93.6412C70.4737 93.6412 68.8421 91.9904 68.8421 89.8021C68.8421 87.6139 70.4737 85.9823 72.5084 85.9823C74.1592 85.9823 75.4645 86.8845 75.8676 88.7464L78.9772 88.017C78.3629 84.9649 75.6756 83.0838 72.5084 83.0838C68.6885 83.0838 65.6749 86.0399 65.6749 89.8021C65.6749 93.5836 68.6885 96.5205 72.5084 96.5205C75.81 96.5205 78.4013 94.6393 78.9964 91.4145L75.8867 90.8003ZM86.398 96.2325V83.3717H83.2308V96.2325H86.398ZM103.954 96.2325L98.5793 83.3717H95.3353L89.9607 96.2325H93.3582L94.2604 93.8907H99.6734L100.576 96.2325H103.954ZM98.6177 91.165H95.3353L96.9669 86.9421L98.6177 91.165ZM114.419 83.3717V96.2325H119.506C123.748 96.2325 126.551 93.622 126.551 89.8021C126.551 85.9823 123.748 83.3717 119.506 83.3717H114.419ZM117.586 93.4876V86.1167H119.391C121.79 86.1167 123.364 87.5755 123.364 89.8021C123.364 92.0288 121.79 93.4876 119.391 93.4876H117.586ZM140.805 93.5068H133.952V91.0882H140.191V88.5161H133.952V86.0975H140.747V83.3717H130.785V96.2325H140.805V93.5068ZM166.972 83.3717H163.881L159.562 91.3378L155.244 83.3717H152.134V96.2325H155.205V89.7829L158.583 96.2325H160.541L163.901 89.8213V96.2325H166.972V83.3717ZM184.528 96.2325L179.153 83.3717H175.909L170.534 96.2325H173.932L174.834 93.8907H180.247L181.149 96.2325H184.528ZM179.191 91.165H175.909L177.541 86.9421L179.191 91.165ZM199.876 96.2325L195.845 91.6641C197.918 91.2034 199.224 89.687 199.224 87.5755C199.224 85.0609 197.381 83.3717 194.597 83.3717H188.09V96.2325H191.258V91.8176H192.179L196.056 96.2325H199.876ZM191.258 89.1687V86.0783H194.252C195.384 86.0783 196.114 86.6925 196.114 87.6139C196.114 88.5544 195.384 89.1687 194.252 89.1687H191.258ZM215.762 96.2325L209.908 89.8213L215.378 83.3717H211.578L207.201 88.4777H206.74V83.3717H203.573V96.2325H206.74V91.3953H207.412L211.616 96.2325H215.762ZM229.287 93.5068H222.434V91.0882H228.673V88.5161H222.434V86.0975H229.229V83.3717H219.267V96.2325H229.287V93.5068ZM244.463 86.1359V83.3717H232.984V86.1359H237.149V96.2325H240.297V86.1359H244.463ZM251.576 96.2325V83.3717H248.409V96.2325H251.576ZM268.537 83.3717H265.389V91.0498L258.882 83.3717H256.253V96.2325H259.42V88.7848L265.927 96.2325H268.537V83.3717ZM279.221 88.6504V91.3378H283.156C282.677 92.7582 281.448 93.6412 279.759 93.6412C277.609 93.6412 275.977 91.9904 275.977 89.8021C275.977 87.6331 277.571 85.9823 279.663 85.9823C280.911 85.9823 282.139 86.3662 282.888 87.825L285.94 86.9421C285.038 84.4275 282.523 83.0838 279.663 83.0838C275.805 83.0838 272.791 86.0399 272.791 89.8021C272.791 93.5836 275.824 96.5205 279.72 96.5205C283.598 96.5205 286.381 93.718 286.381 89.8213C286.381 89.495 286.362 89.1111 286.304 88.6504H279.221ZM297.518 83.3717V96.2325H302.605C306.847 96.2325 309.65 93.622 309.65 89.8021C309.65 85.9823 306.847 83.3717 302.605 83.3717H297.518ZM300.686 93.4876V86.1167H302.49C304.889 86.1167 306.463 87.5755 306.463 89.8021C306.463 92.0288 304.889 93.4876 302.49 93.4876H300.686ZM317.051 96.2325V83.3717H313.884V96.2325H317.051ZM327.716 88.6504V91.3378H331.651C331.171 92.7582 329.943 93.6412 328.254 93.6412C326.104 93.6412 324.472 91.9904 324.472 89.8021C324.472 87.6331 326.065 85.9823 328.158 85.9823C329.405 85.9823 330.634 86.3662 331.382 87.825L334.435 86.9421C333.532 84.4275 331.018 83.0838 328.158 83.0838C324.299 83.0838 321.286 86.0399 321.286 89.8021C321.286 93.5836 324.319 96.5205 328.215 96.5205C332.093 96.5205 334.876 93.718 334.876 89.8213C334.876 89.495 334.857 89.1111 334.799 88.6504H327.716ZM342.278 96.2325V83.3717H339.11V96.2325H342.278ZM357.703 86.1359V83.3717H346.224V86.1359H350.39V96.2325H353.538V86.1359H357.703ZM373.186 96.2325L367.811 83.3717H364.567L359.192 96.2325H362.59L363.492 93.8907H368.905L369.807 96.2325H373.186ZM367.849 91.165H364.567L366.199 86.9421L367.849 91.165ZM386.25 93.4684H379.916V83.3717H376.748V96.2325H386.25V93.4684ZM40.2699 82.7739H43.275L40.7617 80.2605H38.5674L36.054 82.7739L39.0592 82.7717L39.6634 82.1674L40.2699 82.7739Z" fill="#FEFEFE"/>
</svg>
