<svg width="27" height="28" viewBox="0 0 27 28" fill="none" xmlns="http://www.w3.org/2000/svg">
<path fill-rule="evenodd" clip-rule="evenodd" d="M23.0659 4.57328C20.5281 2.03224 17.1529 0.632149 13.5567 0.630859C6.14631 0.630859 0.115384 6.66117 0.112806 14.0735C0.111517 16.4431 0.730983 18.7559 1.90739 20.7942L0 27.7611L7.12676 25.8917C9.09021 26.9631 11.3012 27.5271 13.5509 27.5278H13.5567C20.9658 27.5278 26.9974 21.4968 26.9999 14.0845C27.0012 10.4921 25.6043 7.11497 23.0659 4.57392V4.57328ZM13.5567 25.2574H13.5522C11.5474 25.2568 9.58078 24.7179 7.86486 23.7001L7.4568 23.4577L3.22754 24.5671L4.35625 20.4435L4.09066 20.0206C2.97227 18.2416 2.38117 16.1852 2.38246 14.0742C2.38504 7.91364 7.39749 2.90116 13.5612 2.90116C16.5457 2.90245 19.3511 4.06598 21.4608 6.17835C23.5707 8.29009 24.7316 11.098 24.7303 14.0832C24.7277 20.2444 19.7153 25.2568 13.5567 25.2568V25.2574ZM19.6856 16.8892C19.3497 16.7209 17.6983 15.9087 17.3901 15.7966C17.082 15.6844 16.8584 15.6283 16.6347 15.9648C16.411 16.3013 15.7671 17.0581 15.5711 17.2817C15.3751 17.506 15.1791 17.5338 14.8433 17.3655C14.5075 17.1973 13.4252 16.8427 12.1418 15.6985C11.1433 14.8077 10.469 13.708 10.2731 13.3715C10.0771 13.035 10.2525 12.8532 10.42 12.6863C10.5709 12.5355 10.7559 12.2937 10.9241 12.0978C11.0924 11.9018 11.1478 11.7613 11.26 11.5376C11.3722 11.3133 11.3161 11.1174 11.2323 10.9491C11.1484 10.7808 10.4768 9.12739 10.1964 8.45509C9.92368 7.80019 9.64655 7.88914 9.44091 7.87819C9.24493 7.86851 9.02128 7.86658 8.79696 7.86658C8.57263 7.86658 8.20903 7.95038 7.90093 8.28687C7.59283 8.62332 6.72517 9.43617 6.72517 11.0889C6.72517 12.7417 7.92868 14.3398 8.09691 14.5641C8.26513 14.7884 10.4658 18.181 13.8351 19.6365C14.6364 19.9826 15.2623 20.1895 15.7503 20.3443C16.5548 20.6002 17.287 20.5641 17.8659 20.4777C18.5112 20.381 19.8532 19.6648 20.133 18.8803C20.4127 18.0958 20.4127 17.4229 20.3289 17.283C20.2452 17.1431 20.0208 17.0587 19.685 16.8904L19.6856 16.8892Z" fill="white"/>
</svg>
